<?xml version="1.0" encoding="UTF-8" standalone="no"?>
<svg
   xmlns:dc="http://purl.org/dc/elements/1.1/"
   xmlns:cc="http://creativecommons.org/ns#"
   xmlns:rdf="http://www.w3.org/1999/02/22-rdf-syntax-ns#"
   xmlns:svg="http://www.w3.org/2000/svg"
   xmlns="http://www.w3.org/2000/svg"
   id="svg838"
   version="1.1"
   viewBox="0 0 297 210"
   height="210mm"
   width="297mm">
  <defs
     id="defs832" />
  <metadata
     id="metadata835">
    <rdf:RDF>
      <cc:Work
         rdf:about="">
        <dc:format>image/svg+xml</dc:format>
        <dc:type
           rdf:resource="http://purl.org/dc/dcmitype/StillImage" />
        <dc:title></dc:title>
      </cc:Work>
    </rdf:RDF>
  </metadata>
  <g
     id="layer1"
     transform="matrix(0,1.0434616,-0.99644972,0,288.05001,-8.1408713)">
    <path
       id="rect103"
       d="M -208.91364,36.476215 -51.923771,16.899944 -2.9830933,201.16547 -275.65093,164.68242 Z"
       clip-path="none"
       style="fill:#222222;fill-opacity:1;stroke-width:8.77016354"
       transform="rotate(-90)" />
    <path
       id="rect101"
       d="m -204.41806,45.203766 h 13.78116 V 147.94795 h -13.78116 z"
       clip-path="none"
       style="fill:#ffffff;stroke-width:7.71636581"
       transform="rotate(-90)" />
    <path
       clip-path="none"
       d="m 150.84873,267.3738 a 72.299118,160.25817 4.8289558 0 0 17.04572,-74.57287 72.299118,160.25817 4.8289558 0 0 -53.91471,-173.735854 72.299118,160.25817 4.8289558 0 0 -79.734242,96.395714 71.991943,163.2002 4.9043099 0 1 1.165472,-3.47197 71.991943,163.2002 4.9043099 0 1 5.208871,-13.044144 71.991943,163.2002 4.9043099 0 1 5.687474,-12.02234 71.991943,163.2002 4.9043099 0 1 6.128995,-10.85899 71.991943,163.2002 4.9043099 0 1 6.484599,-9.60921 71.991943,163.2002 4.9043099 0 1 6.794012,-8.23455 71.991943,163.2002 4.9043099 0 1 7.020317,-6.8025 71.991943,163.2002 4.9043099 0 1 7.194974,-5.29161 71.991943,163.2002 4.9043099 0 1 7.277253,-3.74019 71.991943,163.2002 4.9043099 0 1 7.308541,-2.12445 71.991943,163.2002 4.9043099 0 1 7.243314,-0.51369 71.991943,163.2002 4.9043099 0 1 5.066,0.6208 71.991943,163.2002 4.9043099 0 1 6.98456,2.26462 71.991943,163.2002 4.9043099 0 1 6.74601,3.85448 71.991943,163.2002 4.9043099 0 1 6.43443,5.41502 71.991943,163.2002 4.9043099 0 1 6.05234,6.91622 71.991943,163.2002 4.9043099 0 1 5.62425,8.34841 71.991943,163.2002 4.9043099 0 1 5.11549,9.70454 71.991943,163.2002 4.9043099 0 1 4.57464,10.96461 71.991943,163.2002 4.9043099 0 1 3.99257,12.09702 71.991943,163.2002 4.9043099 0 1 3.3562,13.128994 71.991943,163.2002 4.9043099 0 1 2.68953,14.03552 71.991943,163.2002 4.9043099 0 1 1.99737,14.77298 71.991943,163.2002 4.9043099 0 1 1.28798,15.3726 71.991943,163.2002 4.9043099 0 1 0.55955,15.83461 71.991943,163.2002 4.9043099 0 1 -0.16555,16.11748 71.991943,163.2002 4.9043099 0 1 -0.88735,16.26759 71.991943,163.2002 4.9043099 0 1 -1.0711,11.49281 71.991943,163.2002 4.9043099 0 1 -2.11044,16.107 71.991943,163.2002 4.9043099 0 1 -2.81104,15.79992 71.991943,163.2002 4.9043099 0 1 -3.46065,15.33917 71.991943,163.2002 4.9043099 0 1 -0.88073,3.17219 z M 54.483008,96.945126 a 90.213283,8.6946775 54.680114 0 0 24.139193,41.075824 90.213283,8.6946775 54.680114 0 0 67.141829,88.07017 191.6922,4.8494273 54.875418 0 1 -5.71709,-7.89062 191.6922,4.8494273 54.875418 0 1 -10.28713,-14.27986 191.6922,4.8494273 54.875418 0 1 -10.61756,-14.8542 A 191.6922,4.8494273 54.875418 0 1 108.26313,173.80121 191.6922,4.8494273 54.875418 0 1 97.262978,158.24297 191.6922,4.8494273 54.875418 0 1 86.242308,142.57609 191.6922,4.8494273 54.875418 0 1 75.294312,126.93916 191.6922,4.8494273 54.875418 0 1 67.659969,115.98881 191.6922,4.8494273 54.875418 0 1 57.124524,100.77898 191.6922,4.8494273 54.875418 0 1 54.483008,96.945126 Z"
       style="fill:#25ff14;fill-opacity:1;stroke-width:3.5880239"
       id="path61" />
    <path
       id="rect99"
       d="m -134.95497,45.317436 h 13.78116 V 148.06162 h -13.78116 z"
       style="fill:#ffffff;stroke-width:7.71636581"
       transform="rotate(-90)" />
  </g>
</svg>
